# xmcd CD database file
#
# Track frame offsets:
#	150
#	20995
#	33726
#	48670
#	65990
#	80582
#	95989
#	113830
#	126004
#	142738
#
# Disc length: 2059 seconds
#
# Revision: 0
# Processed by: cddbd v1.5.2PL0 Copyright (c) Steve Scherf et al.
# Submitted via: CDex 1.51
#
DISCID=9808090a
DTITLE=Liza G Fly - Liza G Fly
DYEAR=2006
DGENRE=Country
TTITLE0=It's Always Love
TTITLE1=Last Night Honey
TTITLE2=When I Say Blue
TTITLE3=I Didn't Think I...
TTITLE4=911 Emergency
TTITLE5=The Trouble Is
TTITLE6=The Palace Dance Floor
TTITLE7=The Costco Song
TTITLE8=There Was A Time
TTITLE9=The Truth
EXTD=YEAR: 2006
EXTT0=
EXTT1=
EXTT2=
EXTT3=
EXTT4=
EXTT5=
EXTT6=
EXTT7=
EXTT8=
EXTT9=
PLAYORDER=
